<?xml version="1.0" encoding="UTF-8"?> <svg xmlns="http://www.w3.org/2000/svg" width="110" height="107" viewBox="0 0 110 107" fill="none"> <ellipse cx="109.265" cy="96.7333" rx="0.733326" ry="0.733334" fill="white"></ellipse> <ellipse cx="109.265" cy="87.2001" rx="0.733326" ry="0.733334" fill="white"></ellipse> <ellipse cx="109.265" cy="77.6664" rx="0.733326" ry="0.733334" fill="white"></ellipse> <ellipse cx="109.265" cy="68.1332" rx="0.733326" ry="0.733334" fill="white"></ellipse> <ellipse cx="109.265" cy="58.6" rx="0.733326" ry="0.733334" fill="white"></ellipse> <ellipse cx="109.265" cy="39.5336" rx="0.733326" ry="0.733334" fill="white"></ellipse> <ellipse cx="109.265" cy="29.9999" rx="0.733326" ry="0.733334" fill="white"></ellipse> <ellipse cx="109.265" cy="20.4667" rx="0.733326" ry="0.733334" fill="white"></ellipse> <ellipse cx="109.265" cy="10.9335" rx="0.733326" ry="0.733334" fill="white"></ellipse> <ellipse cx="109.265" cy="1.40033" rx="0.733326" ry="0.733334" fill="white"></ellipse> <g opacity="0.75"> <ellipse cx="99.3642" cy="96.7333" rx="0.733326" ry="0.733334" fill="white"></ellipse> <ellipse cx="99.3642" cy="87.2001" rx="0.733326" ry="0.733334" fill="white"></ellipse> <ellipse cx="99.3642" cy="77.6664" rx="0.733326" ry="0.733334" fill="white"></ellipse> <ellipse cx="99.3642" cy="68.1332" rx="0.733326" ry="0.733334" fill="white"></ellipse> <ellipse cx="99.3642" cy="58.6" rx="0.733326" ry="0.733334" fill="white"></ellipse> <ellipse cx="99.3642" cy="39.5336" rx="0.733326" ry="0.733334" fill="white"></ellipse> <ellipse cx="99.3642" cy="29.9999" rx="0.733326" ry="0.733334" fill="white"></ellipse> <ellipse cx="99.3642" cy="20.4667" rx="0.733326" ry="0.733334" fill="white"></ellipse> <ellipse cx="99.3642" cy="10.9335" rx="0.733326" ry="0.733334" fill="white"></ellipse> <ellipse cx="99.3642" cy="1.40033" rx="0.733326" ry="0.733334" fill="white"></ellipse> </g> <g opacity="0.5"> <ellipse cx="89.4658" cy="96.7333" rx="0.733326" ry="0.733334" fill="white"></ellipse> <ellipse cx="89.4658" cy="87.2001" rx="0.733326" ry="0.733334" fill="white"></ellipse> <ellipse cx="89.4658" cy="77.6664" rx="0.733326" ry="0.733334" fill="white"></ellipse> <ellipse cx="89.4658" cy="68.1332" rx="0.733326" ry="0.733334" fill="white"></ellipse> <ellipse cx="89.4658" cy="58.6" rx="0.733326" ry="0.733334" fill="white"></ellipse> <ellipse cx="89.4658" cy="39.5336" rx="0.733326" ry="0.733334" fill="white"></ellipse> <ellipse cx="89.4658" cy="29.9999" rx="0.733326" ry="0.733334" fill="white"></ellipse> <ellipse cx="89.4658" cy="20.4667" rx="0.733326" ry="0.733334" fill="white"></ellipse> <ellipse cx="89.4658" cy="10.9335" rx="0.733326" ry="0.733334" fill="white"></ellipse> <ellipse cx="89.4658" cy="1.40033" rx="0.733326" ry="0.733334" fill="white"></ellipse> </g> <g opacity="0.25"> <ellipse cx="79.5654" cy="96.7333" rx="0.733326" ry="0.733334" fill="white"></ellipse> <ellipse cx="79.5654" cy="87.2001" rx="0.733326" ry="0.733334" fill="white"></ellipse> <ellipse cx="79.5654" cy="77.6664" rx="0.733326" ry="0.733334" fill="white"></ellipse> <ellipse cx="79.5654" cy="68.1332" rx="0.733326" ry="0.733334" fill="white"></ellipse> <ellipse cx="79.5654" cy="58.6" rx="0.733326" ry="0.733334" fill="white"></ellipse> <ellipse cx="79.5654" cy="39.5336" rx="0.733326" ry="0.733334" fill="white"></ellipse> <ellipse cx="79.5654" cy="29.9999" rx="0.733326" ry="0.733334" fill="white"></ellipse> <ellipse cx="79.5654" cy="20.4667" rx="0.733326" ry="0.733334" fill="white"></ellipse> <ellipse cx="79.5654" cy="10.9335" rx="0.733326" ry="0.733334" fill="white"></ellipse> </g> <g opacity="0.1"> <ellipse cx="70.0302" cy="96.7333" rx="0.733326" ry="0.733334" fill="white"></ellipse> <ellipse cx="70.0302" cy="87.2001" rx="0.733326" ry="0.733334" fill="white"></ellipse> <ellipse cx="70.0302" cy="77.6664" rx="0.733326" ry="0.733334" fill="white"></ellipse> <ellipse cx="70.0302" cy="68.1332" rx="0.733326" ry="0.733334" fill="white"></ellipse> <ellipse cx="70.0302" cy="58.6" rx="0.733326" ry="0.733334" fill="white"></ellipse> <ellipse cx="70.0302" cy="49.0668" rx="0.733326" ry="0.733334" fill="white"></ellipse> <ellipse cx="70.0302" cy="39.5336" rx="0.733326" ry="0.733334" fill="white"></ellipse> <ellipse cx="70.0302" cy="29.9999" rx="0.733326" ry="0.733334" fill="white"></ellipse> <ellipse cx="70.0302" cy="20.4667" rx="0.733326" ry="0.733334" fill="white"></ellipse> <ellipse cx="70.0302" cy="10.9335" rx="0.733326" ry="0.733334" fill="white"></ellipse> <ellipse cx="70.0302" cy="1.40033" rx="0.733326" ry="0.733334" fill="white"></ellipse> </g> <rect x="79" y="29" width="21" height="2" fill="white"></rect> <rect x="50" width="31" height="2" fill="white"></rect> <rect x="19.4336" y="19.7334" width="11.3666" height="1.83333" fill="white"></rect> <rect y="76.9331" width="21.2665" height="1.83333" fill="white"></rect> <rect x="39" y="86" width="21" height="2" fill="white"></rect> <rect x="69" y="105" width="41" height="2" fill="white"></rect> <rect x="79" y="48" width="31" height="2" fill="white"></rect> </svg> 